<svg xmlns="http://www.w3.org/2000/svg" width="96" height="96" viewBox="0 0 96 96" role="img" aria-label="engine">
  <defs>
    <linearGradient id="tile" x1="0" y1="0" x2="0" y2="1">
      <stop offset="0" stop-color="#17263F"/>
      <stop offset="1" stop-color="#0A1524"/>
    </linearGradient>
    <linearGradient id="sheen" x1="0" y1="0" x2="0" y2="1">
      <stop offset="0" stop-color="#ffffff" stop-opacity="0.14"/>
      <stop offset="0.5" stop-color="#ffffff" stop-opacity="0.03"/>
      <stop offset="1" stop-color="#ffffff" stop-opacity="0"/>
    </linearGradient>
    <radialGradient id="glow" cx="0.5" cy="0.44" r="0.55">
      <stop offset="0" stop-color="#2E7BE6" stop-opacity="0.42"/>
      <stop offset="1" stop-color="#2E7BE6" stop-opacity="0"/>
    </radialGradient>
    <linearGradient id="ink" x1="0" y1="0" x2="0" y2="1">
      <stop offset="0" stop-color="#5AA6FF"/>
      <stop offset="1" stop-color="#2E7BE6"/>
    </linearGradient>
  </defs>
  <rect x="4" y="4" width="88" height="88" rx="23" fill="url(#tile)"/>
  <rect x="4" y="4" width="88" height="88" rx="23" fill="url(#glow)"/>
  <rect x="4.75" y="4.75" width="86.5" height="86.5" rx="22.25" fill="none" stroke="#8FB6FF" stroke-opacity="0.20" stroke-width="1.5"/>
  <rect x="6" y="6" width="84" height="42" rx="20" fill="url(#sheen)"/>
  <g fill="none" stroke="url(#ink)" stroke-width="4.2" stroke-linecap="round" stroke-linejoin="round">
    <circle cx="48" cy="48" r="11"/>
    <circle cx="48" cy="48" r="3.4" fill="url(#ink)" stroke="none"/>
    <path d="M59.5 48 L64.5 48 M56.13 56.13 L59.67 59.67 M48 59.5 L48 64.5 M39.87 56.13 L36.33 59.67 M36.5 48 L31.5 48 M39.87 39.87 L36.33 36.33 M48 36.5 L48 31.5 M56.13 39.87 L59.67 36.33"/>
  </g>
</svg>
