<svg xmlns="http://www.w3.org/2000/svg" width="96" height="96" viewBox="0 0 96 96" role="img" aria-label="magic">
  <defs>
    <linearGradient id="tile" x1="0" y1="0" x2="0" y2="1">
      <stop offset="0" stop-color="#17263F"/>
      <stop offset="1" stop-color="#0A1524"/>
    </linearGradient>
    <linearGradient id="sheen" x1="0" y1="0" x2="0" y2="1">
      <stop offset="0" stop-color="#ffffff" stop-opacity="0.14"/>
      <stop offset="0.5" stop-color="#ffffff" stop-opacity="0.03"/>
      <stop offset="1" stop-color="#ffffff" stop-opacity="0"/>
    </linearGradient>
    <radialGradient id="glow" cx="0.5" cy="0.44" r="0.55">
      <stop offset="0" stop-color="#2E7BE6" stop-opacity="0.42"/>
      <stop offset="1" stop-color="#2E7BE6" stop-opacity="0"/>
    </radialGradient>
    <linearGradient id="ink" x1="0" y1="0" x2="0" y2="1">
      <stop offset="0" stop-color="#5AA6FF"/>
      <stop offset="1" stop-color="#2E7BE6"/>
    </linearGradient>
  </defs>
  <rect x="4" y="4" width="88" height="88" rx="23" fill="url(#tile)"/>
  <rect x="4" y="4" width="88" height="88" rx="23" fill="url(#glow)"/>
  <rect x="4.75" y="4.75" width="86.5" height="86.5" rx="22.25" fill="none" stroke="#8FB6FF" stroke-opacity="0.20" stroke-width="1.5"/>
  <rect x="6" y="6" width="84" height="42" rx="20" fill="url(#sheen)"/>
  <g fill="none" stroke="url(#ink)" stroke-width="4.2" stroke-linecap="round" stroke-linejoin="round">
    <path d="M33 65 L58 40"/>
    <path d="M62 30 l1.6 4.4 4.4 1.6 -4.4 1.6 -1.6 4.4 -1.6 -4.4 -4.4 -1.6 4.4 -1.6 Z" stroke-width="3"/>
    <path d="M40 30 l0.9 2.6 2.6 0.9 -2.6 0.9 -0.9 2.6 -0.9 -2.6 -2.6 -0.9 2.6 -0.9 Z" stroke-width="2.6"/>
  </g>
</svg>
